<svg width="22" height="22" viewBox="0 0 22 22" fill="none" xmlns="http://www.w3.org/2000/svg">
<path d="M19.25 6.41667V15.5833C19.25 18.3333 17.875 20.1667 14.6667 20.1667H7.33333C4.125 20.1667 2.75 18.3333 2.75 15.5833V6.41667C2.75 3.66667 4.125 1.83334 7.33333 1.83334H14.6667C17.875 1.83334 19.25 3.66667 19.25 6.41667Z" stroke="#292D32" stroke-width="1.5" stroke-miterlimit="10" stroke-linecap="round" stroke-linejoin="round"/>
<path d="M14.2084 1.83334V9.03832C14.2084 9.44166 13.7317 9.64332 13.4383 9.37748L11.3117 7.41586C11.1375 7.25086 10.8625 7.25086 10.6883 7.41586L8.56171 9.37748C8.26838 9.64332 7.79169 9.44166 7.79169 9.03832V1.83334H14.2084Z" stroke="#292D32" stroke-width="1.5" stroke-miterlimit="10" stroke-linecap="round" stroke-linejoin="round"/>
<path d="M12.1458 12.8333H16.0416" stroke="#292D32" stroke-width="1.5" stroke-miterlimit="10" stroke-linecap="round" stroke-linejoin="round"/>
<path d="M8.25 16.5H16.0417" stroke="#292D32" stroke-width="1.5" stroke-miterlimit="10" stroke-linecap="round" stroke-linejoin="round"/>
</svg>
