<svg width="22" height="22" viewBox="0 0 22 22" fill="none" xmlns="http://www.w3.org/2000/svg">
<path d="M13.6858 2.29167V7.7C13.6858 8.10334 13.2091 8.305 12.9158 8.03917L11.3116 6.56334C11.1375 6.39834 10.8625 6.39834 10.6883 6.56334L9.08415 8.03C8.79081 8.305 8.31415 8.09417 8.31415 7.7V2.29167C8.31415 2.035 8.51581 1.83334 8.77248 1.83334H13.2275C13.4841 1.83334 13.6858 2.035 13.6858 2.29167Z" fill="white"/>
<path d="M15.565 1.88833C15.2992 1.85167 15.0608 2.08083 15.0608 2.34667V7.865C15.0608 8.56167 14.6483 9.19417 14.0067 9.47833C13.365 9.75333 12.6225 9.63417 12.1092 9.1575L11.3117 8.42416C11.1375 8.25916 10.8717 8.25916 10.6883 8.42416L9.89083 9.1575C9.56083 9.46917 9.13 9.625 8.69917 9.625C8.46083 9.625 8.2225 9.57917 7.99333 9.47833C7.35167 9.19417 6.93917 8.56167 6.93917 7.865V2.34667C6.93917 2.08083 6.70083 1.85167 6.435 1.88833C3.86833 2.20917 2.75 3.94167 2.75 6.41667V15.5833C2.75 18.3333 4.125 20.1667 7.33333 20.1667H14.6667C17.875 20.1667 19.25 18.3333 19.25 15.5833V6.41667C19.25 3.94167 18.1317 2.20917 15.565 1.88833ZM16.0417 17.1875H8.25C7.87417 17.1875 7.5625 16.8758 7.5625 16.5C7.5625 16.1242 7.87417 15.8125 8.25 15.8125H16.0417C16.4175 15.8125 16.7292 16.1242 16.7292 16.5C16.7292 16.8758 16.4175 17.1875 16.0417 17.1875ZM16.0417 13.5208H12.1458C11.77 13.5208 11.4583 13.2092 11.4583 12.8333C11.4583 12.4575 11.77 12.1458 12.1458 12.1458H16.0417C16.4175 12.1458 16.7292 12.4575 16.7292 12.8333C16.7292 13.2092 16.4175 13.5208 16.0417 13.5208Z" fill="white"/>
</svg>
