<svg width="22" height="22" viewBox="0 0 22 22" fill="none" xmlns="http://www.w3.org/2000/svg">
<path d="M5.49999 3.66667L6.24245 3.77273C6.24747 3.7376 6.24999 3.70216 6.24999 3.66667L5.49999 3.66667ZM3.66666 16.5L2.92419 16.3939C2.91918 16.4291 2.91666 16.4645 2.91666 16.5H3.66666ZM7.14999 17.4167V18.1667C7.49678 18.1667 7.79835 17.9289 7.87928 17.5917L7.14999 17.4167ZM8.24999 12.8333L8.97928 13.0084C8.98339 12.9912 8.98689 12.974 8.98978 12.9566L8.24999 12.8333ZM16.4219 5.95355C16.0649 5.74353 15.6052 5.86271 15.3952 6.21973C15.1852 6.57676 15.3043 7.03643 15.6614 7.24645L16.4219 5.95355ZM11.3666 15.125V14.375C11 14.375 10.6871 14.6401 10.6268 15.0017L11.3666 15.125ZM10.8166 18.425L11.5515 18.5748C11.5533 18.566 11.5549 18.5572 11.5564 18.5483L10.8166 18.425ZM9.89996 19.1583L9.91509 18.4085C9.91005 18.4084 9.905 18.4083 9.89996 18.4083L9.89996 19.1583ZM7.42496 19.1583V18.4083C7.4199 18.4083 7.41484 18.4084 7.40978 18.4085L7.42496 19.1583ZM6.96663 18.6083L7.70145 18.7585C7.70443 18.7439 7.70698 18.7292 7.70909 18.7144L6.96663 18.6083ZM7.89243 17.4311C7.951 17.021 7.66608 16.6411 7.25603 16.5825C6.84598 16.524 6.46608 16.8089 6.4075 17.2189L7.89243 17.4311ZM9.16666 12.6667H11.4583V11.1667H9.16666V12.6667ZM11.4583 12.6667C12.8481 12.6667 14.1751 11.9793 15.1397 11.0147C16.1043 10.0501 16.7917 8.72309 16.7917 7.33333H15.2917C15.2917 8.23524 14.8331 9.19993 14.079 9.95404C13.3249 10.7082 12.3602 11.1667 11.4583 11.1667V12.6667ZM16.7917 7.33333C16.7917 5.79855 16.3028 4.4508 15.3497 3.48392C14.395 2.51531 13.0443 2 11.4583 2V3.5C12.714 3.5 13.655 3.90136 14.2815 4.53692C14.9097 5.1742 15.2917 6.11811 15.2917 7.33333H16.7917ZM11.4583 2H6.41666V3.5H11.4583V2ZM6.41666 2C5.94357 2 5.53325 2.22899 5.25612 2.50613C4.97898 2.78326 4.74999 3.19358 4.74999 3.66667H6.24999C6.24999 3.67693 6.2477 3.67017 6.2584 3.64724C6.26912 3.62427 6.28843 3.59514 6.31678 3.56679C6.34513 3.53844 6.37426 3.51913 6.39723 3.50841C6.42016 3.49771 6.42692 3.5 6.41666 3.5V2ZM4.75753 3.5606L2.92419 16.3939L4.40912 16.6061L6.24245 3.77273L4.75753 3.5606ZM2.91666 16.5C2.91666 16.9731 3.14565 17.3834 3.42278 17.6605C3.69992 17.9377 4.11023 18.1667 4.58332 18.1667V16.6667C4.59359 16.6667 4.58683 16.669 4.5639 16.6583C4.54093 16.6475 4.5118 16.6282 4.48344 16.5999C4.45509 16.5715 4.43579 16.5424 4.42507 16.5194C4.41437 16.4965 4.41666 16.4897 4.41666 16.5H2.91666ZM4.58332 18.1667H7.14999V16.6667H4.58332V18.1667ZM7.87928 17.5917L8.97928 13.0084L7.5207 12.6583L6.4207 17.2416L7.87928 17.5917ZM8.98978 12.9566C9.02209 12.7628 9.07336 12.6927 9.08604 12.6791C9.08929 12.6756 9.08873 12.6765 9.08937 12.6763C9.09161 12.6753 9.11324 12.6667 9.16666 12.6667V11.1667C8.7069 11.1667 8.29314 11.3286 7.98685 11.6584C7.70162 11.9656 7.56956 12.3538 7.51019 12.71L8.98978 12.9566ZM15.6614 7.24645C16.9379 7.99733 17.5833 9.36494 17.5833 11H19.0833C19.0833 8.96839 18.2621 7.036 16.4219 5.95355L15.6614 7.24645ZM17.5833 11C17.5833 11.8852 17.1405 12.7219 16.4098 13.3551C15.677 13.9902 14.7028 14.375 13.75 14.375V15.875C15.0888 15.875 16.4062 15.3431 17.3922 14.4886C18.3803 13.6323 19.0833 12.4065 19.0833 11H17.5833ZM13.75 14.375H11.3666V15.875H13.75V14.375ZM10.6268 15.0017L10.0768 18.3017L11.5564 18.5483L12.1064 15.2483L10.6268 15.0017ZM10.0818 18.2752C10.0657 18.354 9.99555 18.4101 9.91509 18.4085L9.88484 19.9082C10.6894 19.9244 11.3907 19.3634 11.5515 18.5748L10.0818 18.2752ZM9.89996 18.4083H7.42496V19.9083H9.89996V18.4083ZM7.40978 18.4085C7.49839 18.4067 7.58301 18.4453 7.63975 18.5134L6.48742 19.4736C6.72248 19.7557 7.07305 19.9156 7.44015 19.9082L7.40978 18.4085ZM7.63975 18.5134C7.69649 18.5815 7.71919 18.6717 7.70145 18.7585L6.23181 18.4582C6.1583 18.8179 6.25236 19.1916 6.48742 19.4736L7.63975 18.5134ZM7.70909 18.7144L7.89243 17.4311L6.4075 17.2189L6.22417 18.5023L7.70909 18.7144Z" fill="#6E62E5"/>
</svg>
