<svg width="40" height="40" viewBox="0 0 40 40" fill="none" xmlns="http://www.w3.org/2000/svg">
<path d="M18.4661 9.81766C18.6036 10.2387 18.5231 10.7006 18.2511 11.0503L11.6515 19.5355C11.2124 20.1001 10.406 20.2176 9.82403 19.8019L3.22437 15.0879C2.89085 14.8497 2.68542 14.4713 2.66732 14.0618C2.64921 13.6523 2.82044 13.2573 3.13163 12.9906L9.73129 7.33371C10.0713 7.04231 10.5348 6.94101 10.9653 7.06402L17.565 8.94963C17.9909 9.07132 18.3286 9.39659 18.4661 9.81766Z" fill="#FFDC60"/>
<path d="M28.9261 20.2778C28.505 20.1403 28.0431 20.2208 27.6935 20.4928L19.2082 27.0925C18.6436 27.5316 18.5261 28.3379 18.9418 28.9199L23.6558 35.5196C23.8941 35.8531 24.2724 36.0585 24.6819 36.0766C25.0914 36.0947 25.4864 35.9235 25.7532 35.6123L31.41 29.0126C31.7014 28.6727 31.8027 28.2092 31.6797 27.7786L29.7941 21.179C29.6724 20.753 29.3471 20.4154 28.9261 20.2778Z" fill="#FFDC60"/>
<path fill-rule="evenodd" clip-rule="evenodd" d="M35.4568 4.23486C35.3343 3.76746 34.9684 3.40293 34.5006 3.28205C31.2795 2.44978 27.989 2.45698 24.968 3.33107C21.9442 4.20597 19.3098 5.91569 17.3485 8.29309L17.3456 8.29661L14.9326 11.2421C14.9135 11.2654 14.8952 11.2894 14.8777 11.314C14.8748 11.318 14.8719 11.3215 14.8689 11.3246C14.8456 11.349 14.8232 11.3743 14.8018 11.4004L11.9783 14.8431L11.9758 14.8463C9.70098 17.6373 8.32075 21.0844 7.95745 24.8161C7.91881 25.213 8.05985 25.6063 8.34187 25.8882L13.0847 30.6294C13.3526 30.8971 13.7216 31.0384 14.0998 31.0178C17.8574 30.8134 21.341 29.4786 24.0914 27.1535C24.1032 27.1435 24.1149 27.1334 24.1263 27.123L30.4497 21.3888C32.8275 19.4422 34.54 16.8201 35.4178 13.8064C36.3009 10.7742 36.3044 7.46791 35.4568 4.23486Z" fill="#9374FF"/>
<path d="M24.781 13.8853C25.8224 14.9267 27.5109 14.9267 28.5523 13.8853C29.5937 12.8439 29.5937 11.1555 28.5523 10.1141C27.5109 9.07266 25.8224 9.07266 24.781 10.1141C23.7396 11.1555 23.7397 12.8439 24.781 13.8853Z" fill="#FFDC60"/>
</svg>
