<svg width="29" height="28" viewBox="0 0 29 28" fill="none" xmlns="http://www.w3.org/2000/svg">
<path d="M3.83325 25.6667H24.8333" stroke="#FF9F43" stroke-width="1.5" stroke-linecap="round" stroke-linejoin="round"/>
<path d="M6.86656 9.77667H4.99992C4.35825 9.77667 3.83325 10.3017 3.83325 10.9433V21C3.83325 21.6417 4.35825 22.1667 4.99992 22.1667H6.86656C7.50822 22.1667 8.03322 21.6417 8.03322 21V10.9433C8.03322 10.3017 7.50822 9.77667 6.86656 9.77667Z" stroke="#FF9F43" stroke-width="1.5" stroke-linecap="round" stroke-linejoin="round"/>
<path d="M15.2665 6.05499H13.3998C12.7582 6.05499 12.2332 6.57999 12.2332 7.22166V21C12.2332 21.6417 12.7582 22.1667 13.3998 22.1667H15.2665C15.9081 22.1667 16.4331 21.6417 16.4331 21V7.22166C16.4331 6.57999 15.9081 6.05499 15.2665 6.05499Z" stroke="#FF9F43" stroke-width="1.5" stroke-linecap="round" stroke-linejoin="round"/>
<path d="M23.6666 2.33331H21.8C21.1583 2.33331 20.6333 2.85831 20.6333 3.49998V21C20.6333 21.6416 21.1583 22.1666 21.8 22.1666H23.6666C24.3083 22.1666 24.8333 21.6416 24.8333 21V3.49998C24.8333 2.85831 24.3083 2.33331 23.6666 2.33331Z" stroke="#FF9F43" stroke-width="1.5" stroke-linecap="round" stroke-linejoin="round"/>
</svg>
