<svg width="22" height="22" viewBox="0 0 22 22" fill="none" xmlns="http://www.w3.org/2000/svg">
<path d="M19.7084 9.99167V3.75833C19.7084 2.38333 19.1217 1.83333 17.6642 1.83333H13.9609C12.5034 1.83333 11.9167 2.38333 11.9167 3.75833V9.99167C11.9167 11.3667 12.5034 11.9167 13.9609 11.9167H17.6642C19.1217 11.9167 19.7084 11.3667 19.7084 9.99167Z" fill="white"/>
<path d="M10.0834 12.0083V18.2417C10.0834 19.6167 9.49669 20.1667 8.03919 20.1667H4.33585C2.87835 20.1667 2.29169 19.6167 2.29169 18.2417V12.0083C2.29169 10.6333 2.87835 10.0833 4.33585 10.0833H8.03919C9.49669 10.0833 10.0834 10.6333 10.0834 12.0083Z" fill="white"/>
<path d="M19.7084 18.2417V15.675C19.7084 14.3 19.1217 13.75 17.6642 13.75H13.9609C12.5034 13.75 11.9167 14.3 11.9167 15.675V18.2417C11.9167 19.6167 12.5034 20.1667 13.9609 20.1667H17.6642C19.1217 20.1667 19.7084 19.6167 19.7084 18.2417Z" fill="white"/>
<path d="M10.0834 6.325V3.75833C10.0834 2.38333 9.49669 1.83333 8.03919 1.83333H4.33585C2.87835 1.83333 2.29169 2.38333 2.29169 3.75833V6.325C2.29169 7.7 2.87835 8.25 4.33585 8.25H8.03919C9.49669 8.25 10.0834 7.7 10.0834 6.325Z" fill="white"/>
</svg>
