<svg width="22" height="22" viewBox="0 0 22 22" fill="none" xmlns="http://www.w3.org/2000/svg">
<path d="M19.7087 9.99159V3.75825C19.7087 2.38325 19.122 1.83325 17.6645 1.83325H13.9612C12.5037 1.83325 11.917 2.38325 11.917 3.75825V9.99159C11.917 11.3666 12.5037 11.9166 13.9612 11.9166H17.6645C19.122 11.9166 19.7087 11.3666 19.7087 9.99159Z" fill="white"/>
<path d="M10.0837 12.0083V18.2416C10.0837 19.6166 9.49699 20.1666 8.03949 20.1666H4.33616C2.87866 20.1666 2.29199 19.6166 2.29199 18.2416V12.0083C2.29199 10.6333 2.87866 10.0833 4.33616 10.0833H8.03949C9.49699 10.0833 10.0837 10.6333 10.0837 12.0083Z" fill="white"/>
<path d="M19.7087 18.2417V15.675C19.7087 14.3 19.122 13.75 17.6645 13.75H13.9612C12.5037 13.75 11.917 14.3 11.917 15.675V18.2417C11.917 19.6167 12.5037 20.1667 13.9612 20.1667H17.6645C19.122 20.1667 19.7087 19.6167 19.7087 18.2417Z" fill="white"/>
<path d="M10.0837 6.32492V3.75825C10.0837 2.38325 9.49699 1.83325 8.03949 1.83325H4.33616C2.87866 1.83325 2.29199 2.38325 2.29199 3.75825V6.32492C2.29199 7.69992 2.87866 8.24992 4.33616 8.24992H8.03949C9.49699 8.24992 10.0837 7.69992 10.0837 6.32492Z" fill="white"/>
</svg>
