<svg width="22" height="22" viewBox="0 0 22 22" fill="none" xmlns="http://www.w3.org/2000/svg">
<path d="M13.6125 3.62085V7.10418H12.2375V3.62085C12.2375 3.37335 12.0175 3.25418 11.8709 3.25418C11.825 3.25418 11.7792 3.26335 11.7334 3.28168L4.46419 6.02251C3.97835 6.20585 3.66669 6.66418 3.66669 7.18668V7.80085C2.83252 8.42418 2.29169 9.42335 2.29169 10.5508V7.18668C2.29169 6.09585 2.96085 5.12418 3.97835 4.73918L11.2567 1.98918C11.4584 1.91585 11.6692 1.87918 11.8709 1.87918C12.7875 1.87918 13.6125 2.62168 13.6125 3.62085Z" fill="white"/>
<path d="M19.7084 13.2917V14.2083C19.7084 14.4558 19.5159 14.6575 19.2592 14.6667H17.9209C17.435 14.6667 16.995 14.3092 16.9584 13.8325C16.9309 13.5483 17.0409 13.2825 17.2242 13.0992C17.3892 12.925 17.6184 12.8333 17.8659 12.8333H19.25C19.5159 12.8425 19.7084 13.0442 19.7084 13.2917Z" fill="white"/>
<path d="M17.8567 11.8708H18.7917C19.2959 11.8708 19.7084 11.4583 19.7084 10.9542V10.5508C19.7084 8.65332 18.1592 7.10416 16.2617 7.10416H5.73835C4.95919 7.10416 4.24419 7.36082 3.66669 7.80082C2.83252 8.42416 2.29169 9.42332 2.29169 10.5508V16.72C2.29169 18.6175 3.84085 20.1667 5.73835 20.1667H16.2617C18.1592 20.1667 19.7084 18.6175 19.7084 16.72V16.5458C19.7084 16.0417 19.2959 15.6292 18.7917 15.6292H17.9942C17.1142 15.6292 16.2709 15.0883 16.0417 14.2358C15.8492 13.5392 16.0784 12.87 16.5367 12.4208C16.8759 12.0725 17.3434 11.8708 17.8567 11.8708ZM12.8334 11.6875H6.41669C6.04085 11.6875 5.72919 11.3758 5.72919 11C5.72919 10.6242 6.04085 10.3125 6.41669 10.3125H12.8334C13.2092 10.3125 13.5209 10.6242 13.5209 11C13.5209 11.3758 13.2092 11.6875 12.8334 11.6875Z" fill="white"/>
</svg>
