<svg width="22" height="22" viewBox="0 0 22 22" fill="none" xmlns="http://www.w3.org/2000/svg">
<path d="M9.16669 12.8333C9.77014 13.4492 10.5961 13.7963 11.4584 13.7963C12.3206 13.7963 13.1466 13.4492 13.75 12.8333L17.4167 9.16667C18.6823 7.90101 18.6823 5.84899 17.4167 4.58333C16.151 3.31768 14.099 3.31768 12.8334 4.58333L12.375 5.04167" stroke="#28C76F" stroke-opacity="0.9" stroke-width="1.5" stroke-linecap="round" stroke-linejoin="round"/>
<path d="M12.8332 9.16664C12.2298 8.55075 11.4038 8.20367 10.5415 8.20367C9.67929 8.20367 8.85333 8.55075 8.24988 9.16664L4.58321 12.8333C3.31756 14.099 3.31756 16.151 4.58321 17.4166C5.84886 18.6823 7.90089 18.6823 9.16655 17.4166L9.62488 16.9583" stroke="#28C76F" stroke-opacity="0.9" stroke-width="1.5" stroke-linecap="round" stroke-linejoin="round"/>
</svg>
