<svg width="37" height="23" viewBox="0 0 37 23" fill="none" xmlns="http://www.w3.org/2000/svg">
<path fill-rule="evenodd" clip-rule="evenodd" d="M18.5786 19.755C16.6381 21.426 14.1208 22.4347 11.3702 22.4347C5.23266 22.4347 0.257202 17.4125 0.257202 11.2174C0.257202 5.02218 5.23266 0 11.3702 0C14.1208 0 16.6381 1.00872 18.5786 2.67968C20.5192 1.00872 23.0364 0 25.7871 0C31.9246 0 36.9001 5.02218 36.9001 11.2174C36.9001 17.4125 31.9246 22.4347 25.7871 22.4347C23.0364 22.4347 20.5192 21.426 18.5786 19.755Z" fill="#ED0006"/>
<path fill-rule="evenodd" clip-rule="evenodd" d="M18.5786 19.755C20.968 17.6976 22.4832 14.6361 22.4832 11.2174C22.4832 7.79865 20.968 4.73715 18.5786 2.67968C20.5192 1.00872 23.0364 0 25.787 0C31.9246 0 36.9 5.02218 36.9 11.2174C36.9 17.4125 31.9246 22.4347 25.787 22.4347C23.0364 22.4347 20.5192 21.426 18.5786 19.755Z" fill="#F9A000"/>
<path fill-rule="evenodd" clip-rule="evenodd" d="M18.5787 2.67973C20.9681 4.7372 22.4832 7.79869 22.4832 11.2174C22.4832 14.636 20.9681 17.6975 18.5787 19.755C16.1893 17.6975 14.6742 14.636 14.6742 11.2174C14.6742 7.79869 16.1893 4.7372 18.5787 2.67973Z" fill="#FF5E00"/>
</svg>
