<svg width="30" height="30" viewBox="0 0 30 30" fill="none" xmlns="http://www.w3.org/2000/svg">
<path d="M25.2375 17.575L23.825 15.225C23.5125 14.7125 23.2375 13.725 23.2375 13.125V10.7875C23.2375 6.25 19.55 2.5625 15.025 2.5625C10.4875 2.575 6.80001 6.25 6.80001 10.7875V13.1125C6.80001 13.7125 6.52501 14.7 6.22501 15.2125L4.81251 17.5625C4.27501 18.475 4.15001 19.5125 4.48751 20.4125C4.82501 21.325 5.58751 22.05 6.58751 22.375C7.93751 22.825 9.30001 23.15 10.6875 23.3875C10.825 23.4125 10.9625 23.425 11.1 23.45C11.275 23.475 11.4625 23.5 11.65 23.525C11.975 23.575 12.3 23.6125 12.6375 23.6375C13.425 23.7125 14.225 23.75 15.025 23.75C15.8125 23.75 16.6 23.7125 17.375 23.6375C17.6625 23.6125 17.95 23.5875 18.225 23.55C18.45 23.525 18.675 23.5 18.9 23.4625C19.0375 23.45 19.175 23.425 19.3125 23.4C20.7125 23.175 22.1 22.825 23.45 22.375C24.4125 22.05 25.15 21.325 25.5 20.4C25.85 19.4625 25.75 18.4375 25.2375 17.575ZM15.9375 12.5C15.9375 13.025 15.5125 13.45 14.9875 13.45C14.4625 13.45 14.0375 13.025 14.0375 12.5V8.625C14.0375 8.1 14.4625 7.675 14.9875 7.675C15.5125 7.675 15.9375 8.1 15.9375 8.625V12.5Z" fill="#7367F0"/>
<path d="M18.5375 25.0125C18.0125 26.4625 16.625 27.5 15 27.5C14.0125 27.5 13.0375 27.1 12.35 26.3875C11.95 26.0125 11.65 25.5125 11.475 25C11.6375 25.025 11.8 25.0375 11.975 25.0625C12.2625 25.1 12.5625 25.1375 12.8625 25.1625C13.575 25.225 14.3 25.2625 15.025 25.2625C15.7375 25.2625 16.45 25.225 17.15 25.1625C17.4125 25.1375 17.675 25.125 17.925 25.0875C18.125 25.0625 18.325 25.0375 18.5375 25.0125Z" fill="#7367F0"/>
</svg>
