<svg width="29" height="28" viewBox="0 0 29 28" fill="none" xmlns="http://www.w3.org/2000/svg">
<path d="M14.8532 12.6816C14.7366 12.67 14.5966 12.67 14.4682 12.6816C11.6916 12.5883 9.48657 10.3133 9.48657 7.51331C9.48657 4.65498 11.7966 2.33331 14.6666 2.33331C17.5249 2.33331 19.8466 4.65498 19.8466 7.51331C19.8349 10.3133 17.6299 12.5883 14.8532 12.6816Z" stroke="#28C76F" stroke-width="1.5" stroke-linecap="round" stroke-linejoin="round"/>
<path d="M9.01984 16.9867C6.19651 18.8767 6.19651 21.9567 9.01984 23.835C12.2282 25.9817 17.4898 25.9817 20.6982 23.835C23.5215 21.945 23.5215 18.865 20.6982 16.9867C17.5015 14.8517 12.2398 14.8517 9.01984 16.9867Z" stroke="#28C76F" stroke-width="1.5" stroke-linecap="round" stroke-linejoin="round"/>
</svg>
