<svg width="14" height="14" viewBox="0 0 14 14" fill="none" xmlns="http://www.w3.org/2000/svg">
<path d="M1.16666 4.08335V12.25C1.16666 12.7342 1.71499 13.0084 2.09999 12.7167L3.09749 11.97C3.33082 11.795 3.65749 11.8184 3.86749 12.0284L4.83582 13.0025C5.06332 13.23 5.43666 13.23 5.66416 13.0025L6.64416 12.0225C6.84832 11.8184 7.17499 11.795 7.40249 11.97L8.39999 12.7167C8.78499 13.0025 9.33332 12.7284 9.33332 12.25V2.33335C9.33332 1.69169 9.85832 1.16669 10.5 1.16669H4.08332H3.49999C1.74999 1.16669 1.16666 2.21085 1.16666 3.50002V4.08335Z" fill="white"/>
<path d="M10.5058 1.16669V2.04169C10.8908 2.04169 11.2583 2.19919 11.5267 2.46169C11.8067 2.74752 11.9583 3.11502 11.9583 3.50002V4.91169C11.9583 5.34335 11.7658 5.54169 11.3283 5.54169H10.2083V2.33919C10.2083 2.17585 10.3425 2.04169 10.5058 2.04169V1.16669ZM10.5058 1.16669C9.85834 1.16669 9.33334 1.69169 9.33334 2.33919V6.41669H11.3283C12.25 6.41669 12.8333 5.83335 12.8333 4.91169V3.50002C12.8333 2.85835 12.5708 2.27502 12.1508 1.84919C11.725 1.42919 11.1475 1.17252 10.5058 1.16669C10.5058 1.16669 10.5117 1.16669 10.5058 1.16669Z" fill="white"/>
<path d="M7 6C7 6.375 6.89499 6.73 6.70999 7.03C6.36499 7.61 5.73 8 5 8C4.27 8 3.63501 7.61 3.29001 7.03C3.10501 6.73 3 6.375 3 6C3 4.895 3.895 4 5 4C6.105 4 7 4.895 7 6Z" stroke="#7367F0" stroke-width="0.5" stroke-miterlimit="10" stroke-linecap="round" stroke-linejoin="round"/>
<path d="M4.2207 5.99976L4.7157 6.49477L5.7807 5.50977" stroke="#7367F0" stroke-width="0.5" stroke-linecap="round" stroke-linejoin="round"/>
</svg>
