<svg width="40" height="40" viewBox="0 0 40 40" fill="none" xmlns="http://www.w3.org/2000/svg">
<path d="M31.7836 14.2652C28.0765 14.2652 25.0713 11.2644 25.0713 7.56276C25.0705 7.15019 25.1098 6.7385 25.1886 6.3335H11.9106C6.29751 6.3335 3 9.67008 3 15.2603L3 27.4359C3 33.0262 6.29751 36.3335 11.9106 36.3335H24.1041C29.7025 36.3335 33 33.0262 33 27.4359V14.1481C32.5989 14.224 32.1918 14.2632 31.7836 14.2652Z" fill="#9374FF"/>
<path d="M26.3471 18.3481L21.584 24.4945C21.3836 24.7616 21.083 24.9359 20.7514 24.9773C20.4197 25.0187 20.0854 24.9237 19.8253 24.714L15.2528 21.1286L11.1346 26.4555C10.8363 26.929 10.2555 27.1418 9.72134 26.9732C9.18716 26.8046 8.83437 26.2971 8.86294 25.7384C8.86047 25.462 8.95366 25.1932 9.12675 24.9774L14.051 18.6262C14.249 18.3612 14.5456 18.187 14.8737 18.1429C15.2019 18.0989 15.534 18.1887 15.795 18.392L20.3676 21.992L24.3832 16.8262C24.5763 16.5598 24.8692 16.383 25.1951 16.3361C25.5211 16.2893 25.8521 16.3763 26.1126 16.5774C26.6508 16.9983 26.7548 17.7709 26.3471 18.3189V18.3481Z" fill="#FFDC60"/>
<ellipse cx="32.1667" cy="7.16667" rx="4.16667" ry="4.16667" fill="#FFDC60"/>
</svg>
