<svg width="22" height="22" viewBox="0 0 22 22" fill="none" xmlns="http://www.w3.org/2000/svg">
<path d="M15.5558 11.2292V15.3542C15.5558 18.7917 14.1808 20.1667 10.7433 20.1667H6.61835C3.18085 20.1667 1.80585 18.7917 1.80585 15.3542V11.2292C1.80585 7.79166 3.18085 6.41666 6.61835 6.41666H10.7433C14.1808 6.41666 15.5558 7.79166 15.5558 11.2292Z" stroke="#292D32" stroke-width="1.5" stroke-linecap="round" stroke-linejoin="round"/>
<path d="M20.1391 6.87501C20.1391 9.50584 18.1316 11.66 15.5558 11.8892V11.2292C15.5558 7.79168 14.1808 6.41668 10.7433 6.41668H10.0833C10.3125 3.84084 12.4666 1.83334 15.0975 1.83334C17.655 1.83334 19.7633 3.73084 20.0841 6.20584C20.1208 6.41668 20.1391 6.64584 20.1391 6.87501Z" stroke="#292D32" stroke-width="1.5" stroke-linecap="round" stroke-linejoin="round"/>
</svg>
