<svg width="13" height="12" viewBox="0 0 13 12" fill="none" xmlns="http://www.w3.org/2000/svg">
<path d="M2.005 5.61005V7.85505C2.005 10.1 2.90501 11 5.15001 11H7.84501C10.09 11 10.99 10.1 10.99 7.85505V5.61005" stroke="#9D9DA0" stroke-width="0.818182" stroke-linecap="round" stroke-linejoin="round"/>
<path d="M6.49999 6C7.415 6 8.09 5.255 8 4.34L7.67 1H5.33499L4.99999 4.34C4.90999 5.255 5.58499 6 6.49999 6Z" stroke="#9D9DA0" stroke-width="0.818182" stroke-linecap="round" stroke-linejoin="round"/>
<path d="M9.65496 6C10.665 6 11.405 5.18 11.305 4.175L11.165 2.8C10.985 1.5 10.485 1 9.17496 1H7.64996L7.99996 4.505C8.08496 5.33 8.82996 6 9.65496 6Z" stroke="#9D9DA0" stroke-width="0.818182" stroke-linecap="round" stroke-linejoin="round"/>
<path d="M3.32 6C4.145 6 4.89 5.33 4.97 4.505L5.08 3.4L5.32 1H3.795C2.485 1 1.985 1.5 1.805 2.8L1.67 4.175C1.57 5.18 2.31 6 3.32 6Z" stroke="#9D9DA0" stroke-width="0.818182" stroke-linecap="round" stroke-linejoin="round"/>
<path d="M6.50003 8.5C5.66503 8.5 5.25003 8.915 5.25003 9.75V11H7.75003V9.75C7.75003 8.915 7.33503 8.5 6.50003 8.5Z" stroke="#9D9DA0" stroke-width="0.818182" stroke-linecap="round" stroke-linejoin="round"/>
</svg>
