<svg width="17" height="16" viewBox="0 0 17 16" fill="none" xmlns="http://www.w3.org/2000/svg">
<path fill-rule="evenodd" clip-rule="evenodd" d="M5.73933 4H3.85C3.10442 4 2.5 4.60442 2.5 5.35V7.23933C2.5 7.59733 2.642 7.94067 2.89533 8.194L6.97267 12.2713C7.22585 12.5246 7.56926 12.6668 7.92733 12.6668C8.28541 12.6668 8.62882 12.5246 8.882 12.2713L10.7713 10.382C11.0246 10.1288 11.1668 9.78541 11.1668 9.42733C11.1668 9.06926 11.0246 8.72585 10.7713 8.47267L6.69333 4.39533C6.44029 4.14233 6.09716 4.00014 5.73933 4Z" stroke="#9D9DA0" stroke-opacity="0.9" stroke-width="1.09091" stroke-linecap="round" stroke-linejoin="round"/>
<path d="M12.2154 12.2714L14.1047 10.382C14.3579 10.1289 14.5002 9.78544 14.5002 9.42737C14.5002 9.06929 14.3579 8.72588 14.1047 8.4727L9.36005 3.7287" stroke="#9D9DA0" stroke-opacity="0.9" stroke-width="1.09091" stroke-linecap="round" stroke-linejoin="round"/>
<path d="M4.5 5.99996H4.49333" stroke="#9D9DA0" stroke-opacity="0.9" stroke-width="1.09091" stroke-linecap="round" stroke-linejoin="round"/>
</svg>
