<svg width="22" height="22" viewBox="0 0 22 22" fill="none" xmlns="http://www.w3.org/2000/svg">
<path d="M15.7575 4.54668C15.7575 4.55584 15.7575 4.55584 15.7575 4.56501C15.5283 4.55584 15.2992 4.54668 15.0517 4.54668H7.99335L8.97418 3.57501C9.87251 2.66751 10.8625 1.83334 12.0083 1.83334C13.1633 1.83334 14.1533 2.66751 15.0517 3.57501L15.565 4.08834C15.6933 4.20751 15.7575 4.37251 15.7575 4.54668Z" fill="white"/>
<path d="M19.1033 12.0725C19.4608 12.0725 19.745 11.7792 19.745 11.4125V10.6058C19.745 7.00334 18.645 5.91251 15.0517 5.91251H9.27667H6.94834C3.355 5.91251 2.255 7.01251 2.255 10.6058V11C2.255 11.3667 2.53917 11.6508 2.89667 11.6508C3.66667 11.6508 4.28084 12.2742 4.28084 13.035C4.28084 13.7958 3.66667 14.4283 2.89667 14.4283C2.53917 14.4283 2.255 14.7125 2.255 15.0792V15.4733C2.255 19.0758 3.355 20.1667 6.94834 20.1667H9.2675H15.0425C18.6358 20.1667 19.7358 19.0667 19.7358 15.4733C19.7358 15.1158 19.4517 14.8225 19.0942 14.8225C18.3242 14.8225 17.71 14.2083 17.71 13.4475C17.7192 12.6867 18.3333 12.0725 19.1033 12.0725ZM9.91834 17.2883C9.91834 17.6458 9.625 17.9392 9.2675 17.9392C8.91 17.9392 8.61667 17.6458 8.61667 17.2883V14.8317C8.61667 14.4742 8.91 14.1808 9.2675 14.1808C9.625 14.1808 9.91834 14.4742 9.91834 14.8317V17.2883ZM9.91834 11.2475C9.91834 11.605 9.625 11.8983 9.2675 11.8983C8.91 11.8983 8.61667 11.605 8.61667 11.2475V8.79084C8.61667 8.43334 8.91 8.14001 9.2675 8.14001C9.625 8.14001 9.91834 8.43334 9.91834 8.79084V11.2475Z" fill="white"/>
</svg>
