<svg width="38" height="38" viewBox="0 0 38 38" fill="none" xmlns="http://www.w3.org/2000/svg">
<path d="M30.6923 0H7.30771C3.21537 0 0 4.18 0 9.5V28.5C0 33.82 3.21537 38 7.30771 38H30.6923C34.7846 38 38 33.82 38 28.5V9.5C38 4.18 34.7846 0 30.6923 0Z" fill="#00529C"/>
<path d="M12.0214 30.4242V26.2071C12.0214 25.852 12.0737 25.5068 12.1782 25.1714C12.4253 24.3822 12.8198 23.7509 13.3615 23.2774C13.9508 22.7545 14.6257 22.4931 15.386 22.4931C16.2034 22.4931 16.9733 22.8433 17.6956 23.5437C18.3515 22.8433 19.1166 22.4931 19.991 22.4931C20.7514 22.4931 21.4309 22.7496 22.0297 23.2626C22.6285 23.7755 23.0277 24.4266 23.2273 25.2157C23.3223 25.5906 23.3699 25.8964 23.3699 26.1332V30.4242H21.2741V26.2515C21.2551 26.0937 21.2456 26.0049 21.2456 25.9852C21.1791 25.6399 21.0412 25.344 20.8321 25.0974C20.5945 24.8212 20.3189 24.6831 20.0052 24.6831C19.6916 24.6831 19.416 24.8212 19.1783 25.0974C18.9788 25.344 18.8457 25.6399 18.7792 25.9852C18.7697 26.0542 18.7601 26.143 18.7506 26.2515V30.4242H16.6406V26.2071C16.6216 26.0592 16.6121 25.9802 16.6121 25.9704C16.5456 25.6251 16.4078 25.3292 16.1987 25.0826C15.961 24.8162 15.6854 24.6831 15.3718 24.6831C15.0106 24.6831 14.7064 24.8656 14.4593 25.2305C14.2312 25.5561 14.1172 25.9161 14.1172 26.3107V30.4242H12.0214Z" fill="#F36F21"/>
<path d="M23.8831 26.4587C23.8831 25.3736 24.2538 24.4463 24.9952 23.6769C25.7365 22.9074 26.6252 22.5227 27.6612 22.5227C28.7162 22.5227 29.6191 22.9074 30.37 23.6769C31.1209 24.4463 31.4963 25.3785 31.4963 26.4735C31.4963 27.5487 31.1209 28.476 30.37 29.2553C29.6286 30.0346 28.7352 30.4242 27.6897 30.4242C26.6347 30.4242 25.7365 30.0395 24.9952 29.2701C24.2538 28.4908 23.8831 27.5536 23.8831 26.4587ZM25.9789 26.4587C25.9789 26.9519 26.1452 27.3712 26.4779 27.7164C26.8105 28.0617 27.2145 28.2343 27.6897 28.2343C28.1554 28.2343 28.5546 28.0617 28.8873 27.7164C29.2294 27.3613 29.4005 26.942 29.4005 26.4587C29.4005 25.9753 29.2294 25.561 28.8873 25.2158C28.5451 24.8705 28.1412 24.6979 27.6755 24.6979C27.2097 24.6979 26.8105 24.8705 26.4779 25.2158C26.1452 25.561 25.9789 25.9753 25.9789 26.4587Z" fill="#F36F21"/>
<path d="M15.2557 13.0627C15.3425 12.9746 15.4451 12.8612 15.5634 12.7224C15.6814 12.5835 15.7933 12.4196 15.8989 12.2303C16.0046 12.041 16.0948 11.8301 16.1692 11.5966C16.244 11.3634 16.2814 11.1143 16.2814 10.8494C16.2814 10.3326 16.1943 9.85026 16.0203 9.40241C15.8461 8.95486 15.5788 8.56371 15.2183 8.2293C14.8577 7.89552 14.4073 7.63352 13.8662 7.44421C13.3256 7.25524 12.6944 7.16057 11.9735 7.16057H7.21806V20.4024H12.4398C13.198 20.4024 13.8598 20.2984 14.4258 20.0903C14.9912 19.8822 15.4608 19.5954 15.8337 19.2297C16.2066 18.8639 16.4831 18.4383 16.6636 17.9529C16.8437 17.4674 16.9339 16.9471 16.9339 16.3921C16.9339 15.648 16.7661 14.9861 16.4306 14.4057C16.0947 13.8258 15.703 13.378 15.2557 13.0627ZM12.9468 9.58698C13.1226 9.65501 13.2694 9.74336 13.384 9.85461C13.6809 10.1436 13.8295 10.489 13.8295 10.8907C13.8295 11.2552 13.7674 11.5564 13.6438 11.7949C13.5199 12.0337 13.3961 12.2158 13.2725 12.3412H9.64253V9.43055H11.8988C12.3218 9.43055 12.67 9.48355 12.9468 9.58698ZM12.5702 14.6329C13.2274 14.6329 13.7143 14.8056 14.0313 15.1504C14.3294 15.4898 14.4796 15.8903 14.4796 16.3539C14.4796 16.8315 14.3094 17.2393 13.9689 17.5784C13.6281 17.9174 13.0683 18.0873 12.2881 18.0873H9.64253V14.6329H12.5702ZM25.7869 14.6991C26.1783 14.428 26.5049 14.1127 26.7659 13.7532C27.027 13.3937 27.2195 12.9966 27.344 12.5616C27.4682 12.1263 27.5306 11.6819 27.5306 11.2277C27.5306 10.6351 27.4339 10.0897 27.2414 9.5914C27.0483 9.0934 26.7594 8.66466 26.3742 8.30515C25.9886 7.94568 25.5069 7.66516 24.9289 7.46334C24.3508 7.26182 23.6825 7.16059 22.9243 7.16059H17.7864V20.4025H20.2578V15.4842H21.6357L25.0439 20.4025H27.9407L24.4164 15.314C24.9382 15.1754 25.3951 14.9704 25.7869 14.6991ZM22.943 9.43063C23.0907 9.43061 23.2383 9.44002 23.3848 9.4588C23.8254 9.52614 24.1853 9.68572 24.4628 9.93924C24.8403 10.2849 25.0291 10.7087 25.0291 11.2108C25.0292 11.4608 24.9884 11.7092 24.9083 11.9457C24.8292 12.1821 24.6992 12.3977 24.5276 12.5766C24.354 12.759 24.1312 12.9063 23.8591 13.0194C23.5865 13.1326 23.2584 13.189 22.8747 13.189H20.2579V9.43059L22.943 9.43063ZM28.8135 7.16059V7.16409L28.7391 7.16059H28.7181V20.4025H31.238V7.16055L28.8135 7.16059Z" fill="white"/>
</svg>
