<svg width="22" height="22" viewBox="0 0 22 22" fill="none" xmlns="http://www.w3.org/2000/svg">
<path d="M18.5258 7.16834L11.4675 11.2567C11.1833 11.4217 10.8258 11.4217 10.5325 11.2567L3.47418 7.16834C2.97001 6.87501 2.84168 6.18751 3.22668 5.75667C3.49251 5.45417 3.79501 5.20667 4.11585 5.03251L9.08418 2.28251C10.1475 1.68667 11.8708 1.68667 12.9342 2.28251L17.9025 5.03251C18.2233 5.20667 18.5258 5.46334 18.7917 5.75667C19.1583 6.18751 19.03 6.87501 18.5258 7.16834Z" fill="white"/>
<path d="M10.4775 12.9617V19.2133C10.4775 19.91 9.77169 20.3683 9.14836 20.0658C7.26002 19.14 4.07919 17.4075 4.07919 17.4075C2.96086 16.775 2.04419 15.18 2.04419 13.8692V9.13917C2.04419 8.41501 2.80502 7.95667 3.42836 8.31417L10.0192 12.1367C10.2942 12.3108 10.4775 12.6225 10.4775 12.9617Z" fill="white"/>
<path d="M11.5225 12.9617V19.2133C11.5225 19.91 12.2284 20.3683 12.8517 20.0658C14.74 19.14 17.9209 17.4075 17.9209 17.4075C19.0392 16.775 19.9559 15.18 19.9559 13.8692V9.13917C19.9559 8.41501 19.195 7.95667 18.5717 8.31417L11.9809 12.1367C11.7059 12.3108 11.5225 12.6225 11.5225 12.9617Z" fill="white"/>
</svg>
