<svg width="18" height="18" viewBox="0 0 18 18" fill="none" xmlns="http://www.w3.org/2000/svg">
<path d="M4.5 3L5.24246 3.10607C5.24748 3.07093 5.25 3.03549 5.25 3L4.5 3ZM3 13.5L2.25754 13.3939C2.25252 13.4291 2.25 13.4645 2.25 13.5L3 13.5ZM5.85 14.25V15C6.19679 15 6.49836 14.7622 6.57929 14.425L5.85 14.25ZM6.75 10.5L7.47929 10.675C7.4834 10.6579 7.4869 10.6407 7.4898 10.6233L6.75 10.5ZM13.5052 4.75355C13.1482 4.54353 12.6885 4.66271 12.4785 5.01973C12.2685 5.37676 12.3877 5.83643 12.7447 6.04645L13.5052 4.75355ZM9.29998 12.375V11.625C8.93335 11.625 8.62046 11.8901 8.56018 12.2517L9.29998 12.375ZM8.84998 15.075L9.58486 15.2248C9.58666 15.216 9.58829 15.2072 9.58977 15.1983L8.84998 15.075ZM8.09998 15.675L8.1151 14.9252C8.11006 14.925 8.10502 14.925 8.09998 14.925L8.09998 15.675ZM6.07498 15.675V14.925C6.06992 14.925 6.06485 14.925 6.05979 14.9252L6.07498 15.675ZM5.69998 15.225L6.43479 15.3752C6.43778 15.3605 6.44033 15.3458 6.44244 15.3311L5.69998 15.225ZM6.59244 14.2811C6.65102 13.871 6.3661 13.4911 5.95604 13.4325C5.54599 13.374 5.1661 13.6589 5.10752 14.0689L6.59244 14.2811ZM7.5 10.5H9.375V9H7.5V10.5ZM9.375 10.5C10.5564 10.5 11.6751 9.91684 12.4835 9.10846C13.2918 8.30007 13.875 7.18142 13.875 6H12.375C12.375 6.69358 12.0207 7.44993 11.4228 8.04779C10.8249 8.64566 10.0686 9 9.375 9V10.5ZM13.875 6C13.875 4.71522 13.4653 3.5758 12.656 2.75475C11.845 1.93198 10.7026 1.5 9.375 1.5V3C10.3724 3 11.105 3.31802 11.5877 3.80775C12.0722 4.2992 12.375 5.03478 12.375 6H13.875ZM9.375 1.5H5.25V3H9.375V1.5ZM5.25 1.5C4.81858 1.5 4.44993 1.70816 4.20404 1.95404C3.95816 2.19993 3.75 2.56858 3.75 3H5.25C5.25 3.01569 5.24804 3.02714 5.24645 3.03382C5.24488 3.0404 5.24355 3.04293 5.24409 3.04177C5.24463 3.04062 5.24646 3.03703 5.25023 3.03172C5.25398 3.02643 5.25885 3.02056 5.26471 3.01471C5.27056 3.00885 5.27643 3.00398 5.28172 3.00023C5.28703 2.99646 5.29062 2.99463 5.29177 2.99409C5.29293 2.99355 5.2904 2.99488 5.28382 2.99645C5.27714 2.99804 5.26569 3 5.25 3V1.5ZM3.75754 2.89393L2.25754 13.3939L3.74246 13.6061L5.24246 3.10607L3.75754 2.89393ZM2.25 13.5C2.25 13.9314 2.45816 14.3001 2.70404 14.546C2.94993 14.7918 3.31858 15 3.75 15V13.5C3.76569 13.5 3.77714 13.502 3.78382 13.5035C3.7904 13.5051 3.79293 13.5065 3.79177 13.5059C3.79062 13.5054 3.78703 13.5035 3.78172 13.4998C3.77643 13.496 3.77056 13.4911 3.76471 13.4853C3.75885 13.4794 3.75398 13.4736 3.75023 13.4683C3.74646 13.463 3.74463 13.4594 3.74409 13.4582C3.74355 13.4571 3.74488 13.4596 3.74645 13.4662C3.74804 13.4729 3.75 13.4843 3.75 13.5H2.25ZM3.75 15H5.85V13.5H3.75V15ZM6.57929 14.425L7.47929 10.675L6.02071 10.325L5.12071 14.075L6.57929 14.425ZM7.4898 10.6233C7.50102 10.5559 7.51511 10.5116 7.52627 10.4852C7.53715 10.4595 7.54235 10.4576 7.53397 10.4666C7.52368 10.4777 7.50697 10.4901 7.4886 10.4976C7.47183 10.5045 7.47158 10.5 7.5 10.5V9C7.09024 9 6.71398 9.14523 6.43478 9.44591C6.17663 9.72392 6.06124 10.0705 6.0102 10.3767L7.4898 10.6233ZM12.7447 6.04645C13.7379 6.63066 14.25 7.69828 14.25 9H15.75C15.75 7.30172 15.0621 5.66933 13.5052 4.75355L12.7447 6.04645ZM14.25 9C14.25 9.67687 13.9113 10.326 13.3369 10.8239C12.7604 11.3235 11.9945 11.625 11.25 11.625V13.125C12.3804 13.125 13.4896 12.6765 14.3193 11.9574C15.1512 11.2365 15.75 10.1981 15.75 9H14.25ZM11.25 11.625H9.29998V13.125H11.25V11.625ZM8.56018 12.2517L8.11018 14.9517L9.58977 15.1983L10.0398 12.4983L8.56018 12.2517ZM8.1151 14.9251L8.1151 14.9252L8.08486 16.4248C8.809 16.4394 9.44015 15.9345 9.58486 15.2248L8.1151 14.9251ZM8.09998 14.925H6.07498V16.425H8.09998V14.925ZM6.05979 14.9252C6.17372 14.9228 6.28252 14.9725 6.35547 15.06L5.20314 16.0203C5.42199 16.2829 5.74838 16.4318 6.09016 16.4248L6.05979 14.9252ZM6.35547 15.06C6.42842 15.1475 6.45761 15.2635 6.43479 15.3752L4.96516 15.0748C4.89672 15.4098 4.98429 15.7577 5.20314 16.0203L6.35547 15.06ZM6.44244 15.3311L6.59244 14.2811L5.10752 14.0689L4.95752 15.1189L6.44244 15.3311Z" fill="#FF4C51"/>
</svg>
