<svg width="28" height="28" viewBox="0 0 28 28" fill="none" xmlns="http://www.w3.org/2000/svg">
<path d="M18.1884 14.3033C21.4938 14.3033 24.1734 11.6237 24.1734 8.31832C24.1734 5.01289 21.4938 2.33331 18.1884 2.33331C14.883 2.33331 12.2034 5.01289 12.2034 8.31832C12.2034 11.6237 14.883 14.3033 18.1884 14.3033Z" stroke="#7367F0" stroke-width="1.5" stroke-miterlimit="10"/>
<path d="M7.41998 22.68C9.40452 22.68 11.0133 21.0712 11.0133 19.0867C11.0133 17.1021 9.40452 15.4933 7.41998 15.4933C5.43543 15.4933 3.82666 17.1021 3.82666 19.0867C3.82666 21.0712 5.43543 22.68 7.41998 22.68Z" stroke="#7367F0" stroke-width="1.5" stroke-miterlimit="10"/>
<path d="M19.39 25.6667C21.0395 25.6667 22.3766 24.3295 22.3766 22.68C22.3766 21.0305 21.0395 19.6934 19.39 19.6934C17.7405 19.6934 16.4033 21.0305 16.4033 22.68C16.4033 24.3295 17.7405 25.6667 19.39 25.6667Z" stroke="#7367F0" stroke-width="1.5" stroke-miterlimit="10"/>
</svg>
