<svg width="22" height="22" viewBox="0 0 22 22" fill="none" xmlns="http://www.w3.org/2000/svg">
<path d="M15.3083 7.33333C14.935 6.2742 13.9553 5.54844 12.8333 5.5H9.16666C7.64787 5.5 6.41666 6.73122 6.41666 8.25C6.41666 9.76878 7.64787 11 9.16666 11H12.8333C14.3521 11 15.5833 12.2312 15.5833 13.75C15.5833 15.2688 14.3521 16.5 12.8333 16.5H9.16666C8.04471 16.4516 7.06494 15.7258 6.69166 14.6667" stroke="#C893FD" stroke-width="1.5" stroke-linecap="round" stroke-linejoin="round"/>
<path d="M11.75 2.75C11.75 2.33579 11.4142 2 11 2C10.5858 2 10.25 2.33579 10.25 2.75H11.75ZM10.25 5.5C10.25 5.91421 10.5858 6.25 11 6.25C11.4142 6.25 11.75 5.91421 11.75 5.5H10.25ZM11.75 16.5C11.75 16.0858 11.4142 15.75 11 15.75C10.5858 15.75 10.25 16.0858 10.25 16.5H11.75ZM10.25 19.25C10.25 19.6642 10.5858 20 11 20C11.4142 20 11.75 19.6642 11.75 19.25H10.25ZM10.25 2.75V5.5H11.75V2.75H10.25ZM10.25 16.5V19.25H11.75V16.5H10.25Z" fill="#C893FD"/>
</svg>
