<svg width="40" height="40" viewBox="0 0 40 40" fill="none" xmlns="http://www.w3.org/2000/svg">
<path d="M33.3327 13.3335H21.666L23.536 7.72016C23.7029 7.21919 23.7483 6.68574 23.6686 6.16375C23.5889 5.64177 23.3864 5.14619 23.0776 4.71782C22.7689 4.28946 22.3628 3.94057 21.8928 3.69989C21.4228 3.45921 20.9024 3.33363 20.3743 3.3335H19.9993L11.666 12.3968V35.0002H29.9993L36.5194 20.6735L36.666 20.0002V16.6668C36.666 15.7828 36.3148 14.9349 35.6897 14.3098C35.0646 13.6847 34.2167 13.3335 33.3327 13.3335Z" fill="#9374FF"/>
<path d="M8.33398 35.0002H6.66732C5.78326 35.0002 4.93542 34.649 4.31029 34.0239C3.68517 33.3987 3.33398 32.5509 3.33398 31.6668V16.6668C3.33398 15.7828 3.68517 14.9349 4.31029 14.3098C4.93542 13.6847 5.78326 13.3335 6.66732 13.3335H8.33398V35.0002Z" fill="#FFDC60"/>
</svg>
