<svg width="22" height="22" viewBox="0 0 22 22" fill="none" xmlns="http://www.w3.org/2000/svg">
<path d="M20.1667 9.99167V3.75833C20.1667 2.38333 19.58 1.83333 18.1225 1.83333H14.4192C12.9617 1.83333 12.375 2.38333 12.375 3.75833V9.99167C12.375 11.3667 12.9617 11.9167 14.4192 11.9167H18.1225C19.58 11.9167 20.1667 11.3667 20.1667 9.99167Z" stroke="#292D32" stroke-width="1.5" stroke-linecap="round" stroke-linejoin="round"/>
<path d="M20.1667 18.2417V16.5917C20.1667 15.2167 19.58 14.6667 18.1225 14.6667H14.4192C12.9617 14.6667 12.375 15.2167 12.375 16.5917V18.2417C12.375 19.6167 12.9617 20.1667 14.4192 20.1667H18.1225C19.58 20.1667 20.1667 19.6167 20.1667 18.2417Z" stroke="#292D32" stroke-width="1.5" stroke-linecap="round" stroke-linejoin="round"/>
<path d="M9.62498 12.0083V18.2417C9.62498 19.6167 9.03831 20.1667 7.58081 20.1667H3.87748C2.41998 20.1667 1.83331 19.6167 1.83331 18.2417V12.0083C1.83331 10.6333 2.41998 10.0833 3.87748 10.0833H7.58081C9.03831 10.0833 9.62498 10.6333 9.62498 12.0083Z" stroke="#292D32" stroke-width="1.5" stroke-linecap="round" stroke-linejoin="round"/>
<path d="M9.62498 3.75833V5.40833C9.62498 6.78333 9.03831 7.33333 7.58081 7.33333H3.87748C2.41998 7.33333 1.83331 6.78333 1.83331 5.40833V3.75833C1.83331 2.38333 2.41998 1.83333 3.87748 1.83333H7.58081C9.03831 1.83333 9.62498 2.38333 9.62498 3.75833Z" stroke="#292D32" stroke-width="1.5" stroke-linecap="round" stroke-linejoin="round"/>
</svg>
