<svg width="25" height="25" viewBox="0 0 25 25" fill="none" xmlns="http://www.w3.org/2000/svg">
<path d="M3.46741 14.2072V12.4772C3.46741 10.4072 5.1574 8.71722 7.2274 8.71722H18.7074C20.7774 8.71722 22.4674 10.4072 22.4674 12.4772V13.9172H20.4474C19.8874 13.9172 19.3774 14.1372 19.0074 14.5172C18.5874 14.9272 18.3474 15.5172 18.4074 16.1472C18.4974 17.2272 19.4874 18.0172 20.5674 18.0172H22.4674V19.2072C22.4674 21.2772 20.7774 22.9672 18.7074 22.9672H13.2274" stroke="white" stroke-width="1.5" stroke-linecap="round" stroke-linejoin="round"/>
<path d="M3.46741 13.3772V8.80727C3.46741 7.61727 4.1974 6.55722 5.3074 6.13722L13.2474 3.13722C14.4874 2.66722 15.8174 3.58725 15.8174 4.91725V8.71724" stroke="white" stroke-width="1.5" stroke-linecap="round" stroke-linejoin="round"/>
<path d="M23.5262 14.9374V16.9974C23.5262 17.5474 23.0862 17.9974 22.5262 18.0174H20.5662C19.4862 18.0174 18.4962 17.2274 18.4062 16.1474C18.3462 15.5174 18.5862 14.9274 19.0062 14.5174C19.3762 14.1374 19.8862 13.9174 20.4462 13.9174H22.5262C23.0862 13.9374 23.5262 14.3874 23.5262 14.9374Z" stroke="white" stroke-width="1.5" stroke-linecap="round" stroke-linejoin="round"/>
<path d="M7.96741 12.9672H14.9674" stroke="white" stroke-width="1.5" stroke-linecap="round" stroke-linejoin="round"/>
<path d="M3.96741 17.4672H9.3074C9.9474 17.4672 10.4674 17.9872 10.4674 18.6272V19.9072" stroke="white" stroke-width="1.5" stroke-miterlimit="10" stroke-linecap="round" stroke-linejoin="round"/>
<path d="M5.18741 16.2473L3.96741 17.4672L5.18741 18.6872" stroke="white" stroke-width="1.5" stroke-miterlimit="10" stroke-linecap="round" stroke-linejoin="round"/>
<path d="M10.4674 22.7473H5.12741C4.48741 22.7473 3.96741 22.2272 3.96741 21.5872V20.3073" stroke="white" stroke-width="1.5" stroke-miterlimit="10" stroke-linecap="round" stroke-linejoin="round"/>
<path d="M9.24866 23.9675L10.4687 22.7476L9.24866 21.5275" stroke="white" stroke-width="1.5" stroke-miterlimit="10" stroke-linecap="round" stroke-linejoin="round"/>
</svg>
