<svg width="38" height="38" viewBox="0 0 38 38" fill="none" xmlns="http://www.w3.org/2000/svg">
<path d="M22.8333 15.3334C22.8333 15.7476 23.1691 16.0834 23.5833 16.0834C23.9975 16.0834 24.3333 15.7476 24.3333 15.3334H22.8333ZM24.6667 19C24.6667 19.4142 25.0024 19.75 25.4167 19.75C25.8309 19.75 26.1667 19.4142 26.1667 19H24.6667ZM26.1667 22.6667C26.1667 22.2525 25.8309 21.9167 25.4167 21.9167C25.0024 21.9167 24.6667 22.2525 24.6667 22.6667H26.1667ZM12.4167 13.5C12.4167 13.0858 12.0809 12.75 11.6667 12.75C11.2524 12.75 10.9167 13.0858 10.9167 13.5H12.4167ZM24.3333 15.3334V12.5834H22.8333V15.3334H24.3333ZM24.3333 12.5834C24.3333 11.6629 23.5871 10.9167 22.6667 10.9167V12.4167C22.7587 12.4167 22.8333 12.4913 22.8333 12.5834H24.3333ZM22.6667 10.9167H13.5V12.4167H22.6667V10.9167ZM13.5 10.9167C12.0733 10.9167 10.9167 12.0733 10.9167 13.5H12.4167C12.4167 12.9017 12.9017 12.4167 13.5 12.4167V10.9167ZM10.9167 13.5C10.9167 14.9268 12.0733 16.0834 13.5 16.0834V14.5834C12.9017 14.5834 12.4167 14.0983 12.4167 13.5H10.9167ZM13.5 16.0834H24.5V14.5834H13.5V16.0834ZM24.5 16.0834C24.592 16.0834 24.6667 16.158 24.6667 16.25H26.1667C26.1667 15.3295 25.4205 14.5834 24.5 14.5834V16.0834ZM24.6667 16.25V19H26.1667V16.25H24.6667ZM24.6667 22.6667V25.4167H26.1667V22.6667H24.6667ZM24.6667 25.4167C24.6667 25.5087 24.592 25.5834 24.5 25.5834V27.0834C25.4205 27.0834 26.1667 26.3372 26.1667 25.4167H24.6667ZM24.5 25.5834H13.5V27.0834H24.5V25.5834ZM13.5 25.5834C12.9017 25.5834 12.4167 25.0983 12.4167 24.5H10.9167C10.9167 25.9268 12.0733 27.0834 13.5 27.0834V25.5834ZM12.4167 24.5V13.5H10.9167V24.5H12.4167Z" fill="#2F2B3D" fill-opacity="0.9"/>
<path d="M26.3333 19V22.6667H22.6667C21.6542 22.6667 20.8333 21.8459 20.8333 20.8333C20.8333 19.8208 21.6542 19 22.6667 19H26.3333" stroke="#2F2B3D" stroke-opacity="0.9" stroke-width="1.5" stroke-linecap="round" stroke-linejoin="round"/>
</svg>
