<svg width="22" height="22" viewBox="0 0 22 22" fill="none" xmlns="http://www.w3.org/2000/svg">
<path d="M9.16666 12.8333C9.77011 13.4492 10.5961 13.7963 11.4583 13.7963C12.3206 13.7963 13.1465 13.4492 13.75 12.8333L17.4167 9.16668C18.6823 7.90102 18.6823 5.849 17.4167 4.58334C16.151 3.31769 14.099 3.31769 12.8333 4.58334L12.375 5.04168" stroke="#00BAD1" stroke-width="1.5" stroke-linecap="round" stroke-linejoin="round"/>
<path d="M12.8332 9.16664C12.2298 8.55075 11.4038 8.20367 10.5416 8.20367C9.67932 8.20367 8.85336 8.55075 8.24991 9.16664L4.58324 12.8333C3.31759 14.099 3.31759 16.151 4.58324 17.4166C5.84889 18.6823 7.90092 18.6823 9.16658 17.4166L9.62491 16.9583" stroke="#00BAD1" stroke-width="1.5" stroke-linecap="round" stroke-linejoin="round"/>
</svg>
