<svg width="37" height="23" viewBox="0 0 37 23" fill="none" xmlns="http://www.w3.org/2000/svg">
<path d="M22.3975 11.5818C22.3975 17.7906 17.422 22.8239 11.2845 22.8239C5.14697 22.8239 0.171509 17.7906 0.171509 11.5818C0.171509 5.37306 5.14697 0.339844 11.2845 0.339844C17.422 0.339844 22.3975 5.37306 22.3975 11.5818Z" fill="#ED0006"/>
<path d="M36.8144 11.5818C36.8144 17.7906 31.8389 22.8239 25.7014 22.8239C19.5638 22.8239 14.5884 17.7906 14.5884 11.5818C14.5884 5.37306 19.5638 0.339844 25.7014 0.339844C31.8389 0.339844 36.8144 5.37306 36.8144 11.5818Z" fill="#0099DF"/>
<path fill-rule="evenodd" clip-rule="evenodd" d="M18.493 20.1383C20.8824 18.0763 22.3975 15.0081 22.3975 11.5819C22.3975 8.15567 20.8824 5.08746 18.493 3.02547C16.1036 5.08746 14.5885 8.15567 14.5885 11.5819C14.5885 15.0081 16.1036 18.0763 18.493 20.1383Z" fill="#6C6BBD"/>
</svg>
