<svg width="30" height="30" viewBox="0 0 30 30" fill="none" xmlns="http://www.w3.org/2000/svg">
<path d="M2.5 13.75V11.25C2.5 6.875 5 5 8.75 5H21.25C25 5 27.5 6.875 27.5 11.25V18.75C27.5 23.125 25 25 21.25 25H15" stroke="white" stroke-width="2" stroke-miterlimit="10" stroke-linecap="round" stroke-linejoin="round"/>
<path d="M15 18.125C16.7259 18.125 18.125 16.7259 18.125 15C18.125 13.2741 16.7259 11.875 15 11.875C13.2741 11.875 11.875 13.2741 11.875 15C11.875 16.7259 13.2741 18.125 15 18.125Z" stroke="white" stroke-width="2" stroke-miterlimit="10" stroke-linecap="round" stroke-linejoin="round"/>
<path d="M23.125 11.875V18.125" stroke="white" stroke-width="2" stroke-miterlimit="10" stroke-linecap="round" stroke-linejoin="round"/>
<path d="M2.5 19.375H9.17503C9.97503 19.375 10.625 20.025 10.625 20.825V22.425" stroke="white" stroke-width="2" stroke-miterlimit="10" stroke-linecap="round" stroke-linejoin="round"/>
<path d="M4.02496 17.85L2.5 19.375L4.02496 20.9" stroke="white" stroke-width="2" stroke-miterlimit="10" stroke-linecap="round" stroke-linejoin="round"/>
<path d="M10.625 25.9751H3.94997C3.14997 25.9751 2.5 25.325 2.5 24.525V22.925" stroke="white" stroke-width="2" stroke-miterlimit="10" stroke-linecap="round" stroke-linejoin="round"/>
<path d="M9.10156 27.5004L10.6265 25.9754L9.10156 24.4504" stroke="white" stroke-width="2" stroke-miterlimit="10" stroke-linecap="round" stroke-linejoin="round"/>
</svg>
