<svg width="30" height="30" viewBox="0 0 30 30" fill="none" xmlns="http://www.w3.org/2000/svg">
<path d="M14.675 22.1875H22.075C21.9625 22.2875 21.85 22.375 21.7375 22.475L16.4 26.4749C14.6375 27.7874 11.7625 27.7874 9.98751 26.4749L4.63751 22.475C3.46251 21.6 2.5 19.6624 2.5 18.1999V8.93745C2.5 7.41245 3.66251 5.72495 5.08751 5.18745L11.3125 2.84995C12.3375 2.46245 14.0375 2.46245 15.0625 2.84995L21.275 5.18745C22.4625 5.63745 23.475 6.88745 23.7875 8.16245H14.6625C14.3875 8.16245 14.1375 8.17496 13.9 8.17496C11.5875 8.31246 10.9875 9.14994 10.9875 11.7874V18.5749C11 21.4499 11.7375 22.1875 14.675 22.1875Z" stroke="white" stroke-width="2" stroke-linecap="round" stroke-linejoin="round"/>
<path d="M11 14.025H27.5" stroke="white" stroke-width="1.5" stroke-miterlimit="10" stroke-linecap="round" stroke-linejoin="round"/>
<path d="M27.5 11.775V18.7124C27.475 21.4874 26.7125 22.1749 23.825 22.1749H14.675C11.7375 22.1749 11 21.4374 11 18.5499V11.7624C11 9.13744 11.6 8.29993 13.9125 8.14993C14.15 8.14993 14.4 8.13745 14.675 8.13745H23.825C26.7625 8.14995 27.5 8.87496 27.5 11.775Z" stroke="white" stroke-width="2" stroke-linecap="round" stroke-linejoin="round"/>
<path d="M14.15 19.075H15.8125" stroke="white" stroke-width="1.5" stroke-miterlimit="10" stroke-linecap="round" stroke-linejoin="round"/>
<path d="M18.4375 19.075H22.525" stroke="white" stroke-width="2" stroke-miterlimit="10" stroke-linecap="round" stroke-linejoin="round"/>
</svg>
