<svg width="22" height="22" viewBox="0 0 22 22" fill="none" xmlns="http://www.w3.org/2000/svg">
<path d="M10.7708 6.41666H10.0833H6.41665C3.88665 6.41666 1.83331 8.46999 1.83331 11V15.5833C1.83331 18.1133 3.88665 20.1667 6.41665 20.1667H11C13.53 20.1667 15.5833 18.1133 15.5833 15.5833V11.9167V11.2292C15.5833 8.57082 13.4291 6.41666 10.7708 6.41666Z" fill="white"/>
<path d="M20.0567 5.8025C20.5329 8.12614 19.4206 10.2365 17.6156 11.2508C17.31 11.4225 16.9584 11.1832 16.9584 10.8327V10.7708C16.9584 7.6175 14.3825 5.04167 11.2292 5.04167H11.1673C10.8169 5.04167 10.5775 4.68999 10.7492 4.38446C11.7635 2.57946 13.8739 1.46711 16.1975 1.94334C18.1134 2.3375 19.6625 3.88667 20.0567 5.8025Z" fill="white"/>
</svg>
