<svg width="38" height="38" viewBox="0 0 38 38" fill="none" xmlns="http://www.w3.org/2000/svg">
<path fill-rule="evenodd" clip-rule="evenodd" d="M38 18.9993C38 8.50582 29.4921 0 19.0011 0C8.50652 0 0 8.50582 0 18.9993C0 29.4915 8.50652 38 19.0011 38C29.4921 38 38 29.4915 38 18.9993ZM14.2623 34.5248C15.7696 34.5248 16.8942 34.3772 16.9752 32.3274H20.6849C20.7659 34.3772 21.9049 34.4438 23.3744 34.4438V35.4833H14.2623V34.5248ZM23.8867 17.343C25.873 17.9719 30.5348 20.0978 30.5348 24.4959C30.5348 28.8337 26.4461 31.4175 21.5929 31.4175H7.46521L7.47962 30.2919C10.0426 30.2919 10.8016 29.9543 10.8016 27.3372V10.7839C10.8016 7.87057 9.65183 7.68824 7.47467 7.68824V6.64105C7.88255 6.63159 13.0148 6.63835 16.9752 6.64105C16.8942 4.58899 15.7696 4.43997 14.2623 4.43997V3.48327H23.3744V4.52236C21.9049 4.52236 20.7659 4.58899 20.6849 6.64105H21.5929C23.6422 6.64105 28.6746 7.34653 28.684 11.4898C28.6912 14.3973 26.7275 16.2467 23.8867 17.343ZM26.627 25.192C26.627 21.751 24.2644 19.4603 21.3903 18.0723C19.5157 18.4798 17.3151 18.7184 15.2568 18.736L15.7741 17.4524C16.2414 17.4371 16.5953 17.4083 16.9752 17.3858V8.77865H20.6849V16.8293C23.7935 15.9118 25.095 14.0668 25.095 11.9247C25.095 9.17934 23.0133 7.86832 20.6754 7.86832L14.5185 7.87057V27.4133C14.5185 29.482 15.7624 29.9156 16.9752 29.9372V19.7723C18.3659 19.7237 19.8601 19.5261 20.6849 19.3343V29.9372C23.6494 29.9345 26.627 28.1282 26.627 25.192Z" fill="#004F91"/>
</svg>
