<svg width="22" height="22" viewBox="0 0 22 22" fill="none" xmlns="http://www.w3.org/2000/svg">
<path d="M20.4967 7.58083L20.2308 5.04166C19.8458 2.27333 18.59 1.14583 15.9042 1.14583H13.7408H12.3842H9.59748H8.24082H6.04082C3.34582 1.14583 2.09915 2.27333 1.70498 5.06916L1.45748 7.58999C1.36582 8.57083 1.63165 9.52416 2.20915 10.2667C2.90582 11.1742 3.97832 11.6875 5.16998 11.6875C6.32498 11.6875 7.43415 11.11 8.13082 10.1842C8.75415 11.11 9.81748 11.6875 11 11.6875C12.1825 11.6875 13.2183 11.1375 13.8508 10.2208C14.5567 11.1283 15.6475 11.6875 16.7842 11.6875C18.0033 11.6875 19.1033 11.1467 19.7908 10.1933C20.3408 9.46 20.5883 8.53416 20.4967 7.58083Z" fill="white"/>
<path d="M10.4042 15.2717C9.23999 15.3908 8.35999 16.3808 8.35999 17.5542V20.0658C8.35999 20.3133 8.56165 20.515 8.80915 20.515H13.1817C13.4292 20.515 13.6308 20.3133 13.6308 20.0658V17.875C13.64 15.9592 12.5125 15.0517 10.4042 15.2717Z" fill="white"/>
<path d="M19.5892 13.2V15.9317C19.5892 18.4617 17.5358 20.515 15.0058 20.515C14.7583 20.515 14.5567 20.3133 14.5567 20.0658V17.875C14.5567 16.7017 14.1992 15.785 13.5025 15.1617C12.8883 14.6025 12.0542 14.3275 11.0183 14.3275C10.7892 14.3275 10.56 14.3367 10.3125 14.3642C8.68083 14.5292 7.44333 15.9042 7.44333 17.5542V20.0658C7.44333 20.3133 7.24166 20.515 6.99416 20.515C4.46416 20.515 2.41083 18.4617 2.41083 15.9317V13.2183C2.41083 12.5767 3.04333 12.1458 3.63916 12.3567C3.88666 12.4392 4.13416 12.5033 4.39083 12.54C4.50083 12.5583 4.61999 12.5767 4.72999 12.5767C4.87666 12.595 5.02333 12.6042 5.16999 12.6042C6.23333 12.6042 7.27833 12.21 8.10333 11.5317C8.89166 12.21 9.91833 12.6042 11 12.6042C12.0908 12.6042 13.0992 12.2283 13.8875 11.55C14.7125 12.2192 15.7392 12.6042 16.7842 12.6042C16.9492 12.6042 17.1142 12.595 17.27 12.5767C17.38 12.5675 17.4808 12.5583 17.5817 12.54C17.8658 12.5033 18.1225 12.4208 18.3792 12.3383C18.975 12.1367 19.5892 12.5767 19.5892 13.2Z" fill="white"/>
</svg>
