<svg width="22" height="22" viewBox="0 0 22 22" fill="none" xmlns="http://www.w3.org/2000/svg">
<path d="M12.5858 3.21751L14.1991 6.44418C14.4191 6.89335 15.0058 7.32418 15.5008 7.40668L18.425 7.89251C20.295 8.20418 20.735 9.56085 19.3875 10.8992L17.1141 13.1725C16.7291 13.5575 16.5183 14.3 16.6375 14.8317L17.2883 17.6458C17.8016 19.8733 16.6191 20.735 14.6483 19.5708L11.9075 17.9483C11.4125 17.655 10.5966 17.655 10.0925 17.9483L7.35164 19.5708C5.38998 20.735 4.19831 19.8642 4.71164 17.6458L5.36248 14.8317C5.48164 14.3 5.27081 13.5575 4.88581 13.1725L2.61248 10.8992C1.27414 9.56085 1.70498 8.20418 3.57498 7.89251L6.49914 7.40668C6.98498 7.32418 7.57164 6.89335 7.79164 6.44418L9.40498 3.21751C10.285 1.46668 11.715 1.46668 12.5858 3.21751Z" stroke="#292D32" stroke-width="1.5" stroke-linecap="round" stroke-linejoin="round"/>
</svg>
