<svg width="22" height="22" viewBox="0 0 22 22" fill="none" xmlns="http://www.w3.org/2000/svg">
<path d="M17.3342 13.4681C17.3342 14.6506 18.3059 15.6131 19.4884 15.6131C19.4884 19.0506 18.6267 19.9123 15.1892 19.9123H6.59085C3.15335 19.9123 2.29169 19.0506 2.29169 15.6131V15.1915C3.47419 15.1915 4.44585 14.2198 4.44585 13.0373C4.44585 11.8548 3.47419 10.8831 2.29169 10.8831V10.4615C2.30085 7.02396 3.15335 6.16229 6.59085 6.16229H15.18C18.6175 6.16229 19.4792 7.02396 19.4792 10.4615V11.3231C18.2967 11.3231 17.3342 12.2765 17.3342 13.4681Z" stroke="#292D32" stroke-width="1.5" stroke-linecap="round" stroke-linejoin="round"/>
<path d="M14.8601 6.1623H6.52765L9.21348 3.47647C11.4043 1.28564 12.5043 1.28564 14.6951 3.47647L15.2451 4.02647C14.6676 4.60397 14.5301 5.45647 14.8601 6.1623Z" stroke="#292D32" stroke-width="1.5" stroke-linecap="round" stroke-linejoin="round"/>
<path d="M9.05566 6.16245L9.05566 19.9124" stroke="#292D32" stroke-width="1.5" stroke-linecap="round" stroke-linejoin="round" stroke-dasharray="5 5"/>
</svg>
