<svg width="15" height="16" viewBox="0 0 15 16" fill="none" xmlns="http://www.w3.org/2000/svg">
<path d="M7.5 8C9.22589 8 10.625 6.60089 10.625 4.875C10.625 3.14911 9.22589 1.75 7.5 1.75C5.77411 1.75 4.375 3.14911 4.375 4.875C4.375 6.60089 5.77411 8 7.5 8Z" stroke="#292D32" stroke-width="1.5" stroke-linecap="round" stroke-linejoin="round"/>
<path d="M12.0063 10.3375L9.79376 12.55C9.70626 12.6375 9.62502 12.8 9.60627 12.9188L9.48752 13.7625C9.44377 14.0688 9.65628 14.2813 9.96253 14.2375L10.8063 14.1188C10.925 14.1 11.0938 14.0188 11.175 13.9313L13.3875 11.7188C13.7688 11.3375 13.95 10.8938 13.3875 10.3313C12.8313 9.77501 12.3875 9.95626 12.0063 10.3375Z" stroke="#292D32" stroke-width="1.5" stroke-miterlimit="10" stroke-linecap="round" stroke-linejoin="round"/>
<path d="M11.6875 10.6562C11.875 11.3313 12.4 11.8562 13.075 12.0437" stroke="#292D32" stroke-width="1.5" stroke-miterlimit="10" stroke-linecap="round" stroke-linejoin="round"/>
<path d="M2.13123 14.25C2.13123 11.8313 4.53749 9.875 7.49999 9.875C8.14999 9.875 8.77497 9.96875 9.35622 10.1437" stroke="#292D32" stroke-width="1.5" stroke-linecap="round" stroke-linejoin="round"/>
</svg>
