<svg width="38" height="38" viewBox="0 0 38 38" fill="none" xmlns="http://www.w3.org/2000/svg">
<path d="M0 8.83721C0 3.95655 3.95655 0 8.83721 0H29.1628C34.0434 0 38 3.95655 38 8.83721V29.1628C38 34.0434 34.0434 38 29.1628 38H8.83721C3.95655 38 0 34.0434 0 29.1628V8.83721Z" fill="#FF3400"/>
<path d="M4.04418 23.9174V19.5574H4.8378V20.1551C4.99456 19.946 5.17745 19.7762 5.38647 19.6456C5.60202 19.5149 5.85023 19.4496 6.1311 19.4496C6.55567 19.4496 6.8692 19.5149 7.07169 19.6456C7.28071 19.7697 7.4636 19.9591 7.62037 20.2138C7.81632 19.946 8.03187 19.7534 8.26702 19.6358C8.50217 19.5117 8.75691 19.4496 9.03124 19.4496C9.38396 19.4496 9.6681 19.5019 9.88365 19.6064C10.0992 19.7109 10.2625 19.8448 10.3735 20.0081C10.4846 20.1714 10.5597 20.351 10.5989 20.547C10.6381 20.7364 10.6577 20.9193 10.6577 21.0956V23.9174H9.86406V21.0956C9.86406 20.7691 9.78567 20.5045 9.62891 20.302C9.47215 20.0995 9.22393 19.9983 8.88428 19.9983C8.67526 19.9983 8.48584 20.0571 8.31601 20.1747C8.14618 20.2922 8.01228 20.4359 7.9143 20.6058C7.81632 20.7756 7.76733 20.9389 7.76733 21.0956V23.9174H6.97371V21.0956C6.97371 20.9062 6.93452 20.7299 6.85614 20.5666C6.77776 20.3967 6.66672 20.2596 6.52301 20.1551C6.37931 20.0506 6.20949 19.9983 6.01353 19.9983C5.78492 19.9983 5.58243 20.0604 5.40607 20.1845C5.22971 20.302 5.08927 20.4457 4.98476 20.6156C4.88679 20.7854 4.8378 20.9454 4.8378 21.0956V23.9174H4.04418Z" fill="white"/>
<path d="M13.8517 24.035C13.4533 24.035 13.0908 23.9533 12.7642 23.79C12.4441 23.6202 12.1861 23.3655 11.9902 23.0258C11.8007 22.6862 11.706 22.2583 11.706 21.7423C11.706 21.2198 11.8007 20.7887 11.9902 20.449C12.1861 20.1093 12.4441 19.8579 12.7642 19.6946C13.0908 19.5313 13.4533 19.4496 13.8517 19.4496C14.2437 19.4496 14.6029 19.5313 14.9295 19.6946C15.2561 19.8579 15.5141 20.1093 15.7035 20.449C15.8995 20.7887 15.9975 21.2198 15.9975 21.7423C15.9975 22.2583 15.8995 22.6862 15.7035 23.0258C15.5141 23.3655 15.2561 23.6202 14.9295 23.79C14.6029 23.9533 14.2437 24.035 13.8517 24.035ZM13.8517 23.4667C14.1587 23.4667 14.407 23.3818 14.5964 23.212C14.7923 23.0356 14.936 22.8168 15.0275 22.5555C15.1255 22.2877 15.1745 22.0166 15.1745 21.7423C15.1745 21.468 15.1255 21.1969 15.0275 20.9291C14.936 20.6613 14.7923 20.4392 14.5964 20.2628C14.407 20.0865 14.1587 19.9983 13.8517 19.9983C13.5382 19.9983 13.2835 20.0865 13.0875 20.2628C12.8916 20.4392 12.7446 20.6613 12.6466 20.9291C12.5552 21.1969 12.5095 21.468 12.5095 21.7423C12.5095 22.0166 12.5552 22.2877 12.6466 22.5555C12.7446 22.8168 12.8916 23.0356 13.0875 23.212C13.2835 23.3818 13.5382 23.4667 13.8517 23.4667Z" fill="white"/>
<path d="M19.2797 24.035C18.9401 24.035 18.6461 23.9729 18.3979 23.8488C18.1562 23.7182 17.9603 23.5712 17.8101 23.4079V23.9174H17.0164V17.6174H17.7807V20.1551C17.8917 19.9918 18.0615 19.835 18.2901 19.6848C18.5253 19.528 18.8519 19.4496 19.2699 19.4496C19.6292 19.4496 19.9296 19.5215 20.1713 19.6652C20.413 19.8023 20.6024 19.982 20.7396 20.2041C20.8833 20.4261 20.9845 20.658 21.0433 20.8997C21.1021 21.1414 21.1315 21.3602 21.1315 21.5561C21.1315 22.0918 21.0368 22.5457 20.8474 22.918C20.6645 23.2838 20.4293 23.5614 20.1419 23.7508C19.8611 23.9403 19.5737 24.035 19.2797 24.035ZM19.0446 23.4471C19.3908 23.4471 19.6814 23.2871 19.9166 22.967C20.1583 22.647 20.2791 22.2061 20.2791 21.6443C20.2791 21.3504 20.2399 21.0761 20.1615 20.8213C20.0897 20.56 19.9656 20.351 19.7892 20.1943C19.6128 20.031 19.3712 19.9493 19.0642 19.9493C18.7768 19.9493 18.5384 20.0342 18.3489 20.2041C18.1595 20.3673 18.0191 20.5796 17.9276 20.8409C17.8427 21.0956 17.8003 21.3635 17.8003 21.6443C17.8003 22.2322 17.9048 22.6796 18.1138 22.9866C18.3228 23.2936 18.6331 23.4471 19.0446 23.4471Z" fill="white"/>
<path d="M22.1603 23.9174V19.5574H22.9539V23.9174H22.1603ZM22.1309 18.4209V17.6174H22.9833V18.4209H22.1309Z" fill="white"/>
<path d="M24.159 23.9174V17.6174H24.9526V23.9174H24.159Z" fill="white"/>
<path d="M27.9801 24.035C27.6209 24.035 27.3139 23.9631 27.0592 23.8194C26.8044 23.6757 26.5987 23.4896 26.4419 23.261C26.2917 23.0323 26.1806 22.7841 26.1088 22.5163C26.0369 22.2485 26.001 21.9905 26.001 21.7423C26.001 21.468 26.0337 21.1969 26.099 20.9291C26.1708 20.6613 26.2851 20.4163 26.4419 20.1943C26.5987 19.9656 26.8077 19.786 27.069 19.6554C27.3302 19.5182 27.6535 19.4496 28.0389 19.4496C28.4635 19.4496 28.8032 19.5215 29.0579 19.6652C29.3192 19.8023 29.5151 19.9787 29.6458 20.1943C29.7764 20.4033 29.8646 20.6221 29.9103 20.8507C29.956 21.0793 29.9789 21.2785 29.9789 21.4484C29.9789 21.5921 29.9691 21.7292 29.9495 21.8599H26.8338C26.8338 22.1603 26.873 22.4314 26.9514 22.6731C27.0298 22.9148 27.1539 23.1075 27.3237 23.2512C27.4935 23.3949 27.7189 23.4667 27.9997 23.4667C28.2675 23.4667 28.4798 23.4145 28.6366 23.3099C28.7934 23.2054 28.9077 23.0813 28.9795 22.9376C29.0514 22.7874 29.0971 22.6502 29.1167 22.5261H29.9495C29.9103 22.7613 29.8156 22.9964 29.6654 23.2316C29.5217 23.4602 29.3126 23.6529 29.0383 23.8096C28.764 23.9599 28.4112 24.035 27.9801 24.035ZM26.8338 21.2916H29.1167C29.1232 21.2589 29.1265 21.2263 29.1265 21.1936C29.1265 21.161 29.1265 21.1283 29.1265 21.0956C29.1265 20.9062 29.0906 20.7299 29.0187 20.5666C28.9469 20.3967 28.8293 20.2596 28.666 20.1551C28.5027 20.0506 28.2806 19.9983 27.9997 19.9983C27.7189 19.9983 27.4968 20.0734 27.3335 20.2236C27.1767 20.3673 27.0592 20.5404 26.9808 20.7429C26.9089 20.9389 26.8599 21.1218 26.8338 21.2916Z" fill="white"/>
<path d="M6.30746 31.4013C5.96781 31.4013 5.67387 31.3392 5.42566 31.2151C5.18399 31.0845 4.98803 30.9375 4.8378 30.7742V31.2837H4.04418V24.9838H4.8084V27.5214C4.91945 27.3581 5.08927 27.2013 5.31789 27.0511C5.55304 26.8943 5.87963 26.8159 6.29767 26.8159C6.65692 26.8159 6.95738 26.8878 7.19906 27.0315C7.44074 27.1687 7.63016 27.3483 7.76733 27.5704C7.91103 27.7925 8.01228 28.0243 8.07106 28.266C8.12985 28.5077 8.15924 28.7265 8.15924 28.9225C8.15924 29.4581 8.06453 29.912 7.87511 30.2844C7.69222 30.6501 7.45707 30.9277 7.16967 31.1172C6.8888 31.3066 6.6014 31.4013 6.30746 31.4013ZM6.07232 30.8134C6.41851 30.8134 6.70917 30.6534 6.94432 30.3333C7.186 30.0133 7.30684 29.5724 7.30684 29.0106C7.30684 28.7167 7.26765 28.4424 7.18926 28.1876C7.11741 27.9264 6.99331 27.7173 6.81695 27.5606C6.64059 27.3973 6.39891 27.3156 6.09191 27.3156C5.80451 27.3156 5.5661 27.4005 5.37667 27.5704C5.18725 27.7337 5.04682 27.946 4.95537 28.2072C4.87046 28.462 4.828 28.7298 4.828 29.0106C4.828 29.5985 4.93251 30.0459 5.14153 30.3529C5.35055 30.6599 5.66081 30.8134 6.07232 30.8134Z" fill="white"/>
<path d="M10.4864 31.4013C10.2382 31.4013 9.98346 31.3556 9.72218 31.2641C9.46744 31.1727 9.25189 31.0322 9.07553 30.8428C8.89917 30.6534 8.81099 30.4183 8.81099 30.1374C8.81099 29.8043 8.88284 29.5332 9.02654 29.3242C9.17677 29.1152 9.36946 28.9551 9.60461 28.8441C9.84629 28.7265 10.1043 28.6481 10.3786 28.6089C10.6595 28.5632 10.9273 28.5404 11.1821 28.5404H11.7797C11.7797 28.1419 11.7209 27.8545 11.6034 27.6781C11.4858 27.4953 11.2278 27.4038 10.8293 27.4038C10.6856 27.4038 10.5387 27.4267 10.3884 27.4724C10.2382 27.5116 10.1108 27.5834 10.0063 27.6879C9.90834 27.7859 9.85935 27.9231 9.85935 28.0995H9.04614C9.04614 27.7533 9.13105 27.4887 9.30088 27.3058C9.47724 27.1229 9.69932 26.9956 9.96713 26.9237C10.2349 26.8519 10.5125 26.8159 10.7999 26.8159C10.9959 26.8159 11.2082 26.8323 11.4368 26.8649C11.6719 26.8976 11.8842 26.9662 12.0737 27.0707C12.2696 27.1752 12.4068 27.3352 12.4852 27.5508C12.5243 27.6488 12.5472 27.8055 12.5537 28.0211C12.5668 28.2366 12.5733 28.4391 12.5733 28.6285V30.059C12.5733 30.2615 12.5799 30.4868 12.5929 30.7351C12.6125 30.9767 12.6452 31.1596 12.6909 31.2837H11.9169C11.8908 31.1727 11.8679 31.0682 11.8483 30.9702C11.8352 30.8722 11.8222 30.7677 11.8091 30.6567C11.6066 30.9114 11.4074 31.1008 11.2114 31.2249C11.0155 31.3425 10.7738 31.4013 10.4864 31.4013ZM10.4864 30.8134C10.8522 30.8134 11.1265 30.7383 11.3094 30.5881C11.4923 30.4313 11.6132 30.2256 11.6719 29.9708C11.7373 29.7161 11.7699 29.4385 11.7699 29.138C11.7242 29.1315 11.6523 29.125 11.5544 29.1184C11.4629 29.1119 11.3878 29.1086 11.329 29.1086C11.1853 29.1086 11.0155 29.1217 10.8195 29.1478C10.6301 29.1739 10.444 29.2229 10.2611 29.2948C10.0782 29.3601 9.92467 29.4548 9.80057 29.5789C9.68299 29.6965 9.62421 29.85 9.62421 30.0394C9.62421 30.2811 9.70912 30.4705 9.87895 30.6077C10.0488 30.7449 10.2513 30.8134 10.4864 30.8134Z" fill="white"/>
<path d="M13.6072 31.2837V26.9237H14.4008V27.4822C14.5315 27.2993 14.6947 27.1425 14.8907 27.0119C15.0932 26.8813 15.3708 26.8159 15.7235 26.8159C16.1416 26.8159 16.4714 26.8845 16.7131 27.0217C16.9613 27.1589 17.1377 27.3483 17.2422 27.59C17.3467 27.8316 17.3989 28.1092 17.3989 28.4228V31.2837H16.6249V28.3934C16.6249 28.1974 16.5759 28.0211 16.4779 27.8643C16.38 27.701 16.2493 27.5736 16.086 27.4822C15.9227 27.3842 15.7431 27.3352 15.5472 27.3352C15.2402 27.3352 14.9724 27.443 14.7437 27.6586C14.5151 27.8676 14.4008 28.1354 14.4008 28.462V31.2837H13.6072Z" fill="white"/>
<path d="M18.4132 31.2837V24.9838H19.2068V28.7461L20.8724 26.9237H21.8522L20.1082 28.8147L21.9894 31.2837H20.941L19.2068 28.9617V31.2837H18.4132Z" fill="white"/>
<path d="M22.5628 31.2837V26.9237H23.3564V31.2837H22.5628ZM22.5334 25.7872V24.9838H23.3858V25.7872H22.5334Z" fill="white"/>
<path d="M24.3608 31.2837V26.9237H25.1545V27.4822C25.2851 27.2993 25.4484 27.1425 25.6444 27.0119C25.8468 26.8813 26.1244 26.8159 26.4772 26.8159C26.8952 26.8159 27.2251 26.8845 27.4667 27.0217C27.715 27.1589 27.8913 27.3483 27.9958 27.59C28.1003 27.8316 28.1526 28.1092 28.1526 28.4228V31.2837H27.3786V28.3934C27.3786 28.1974 27.3296 28.0211 27.2316 27.8643C27.1336 27.701 27.003 27.5736 26.8397 27.4822C26.6764 27.3842 26.4968 27.3352 26.3008 27.3352C25.9938 27.3352 25.726 27.443 25.4974 27.6586C25.2688 27.8676 25.1545 28.1354 25.1545 28.462V31.2837H24.3608Z" fill="white"/>
<path d="M30.9794 33.0179C30.6202 33.0179 30.3263 32.9657 30.0976 32.8612C29.869 32.7632 29.6894 32.6358 29.5588 32.4791C29.4347 32.3288 29.3465 32.1753 29.2942 32.0186C29.2485 31.8683 29.2256 31.741 29.2256 31.6364H30.0389C30.0389 31.8324 30.0911 31.9924 30.1956 32.1165C30.3067 32.2406 30.4438 32.3321 30.6071 32.3909C30.777 32.4497 30.95 32.4791 31.1264 32.4791C31.5314 32.4791 31.8286 32.3321 32.018 32.0382C32.214 31.7508 32.3119 31.2315 32.3119 30.4803C32.1944 30.6893 32.0017 30.8559 31.7339 30.98C31.4661 31.1041 31.1983 31.1662 30.9304 31.1662C30.3426 31.1662 29.8756 30.9865 29.5294 30.6273C29.1832 30.268 29.0101 29.7128 29.0101 28.9617C29.0101 28.5501 29.0852 28.1844 29.2354 27.8643C29.3922 27.5377 29.6077 27.283 29.8821 27.1001C30.163 26.9107 30.483 26.8159 30.8423 26.8159C31.2277 26.8159 31.5379 26.8617 31.7731 26.9531C32.0082 27.038 32.1878 27.1883 32.3119 27.4038V26.9237H33.1056V31.0388C33.1056 31.4111 33.0239 31.7475 32.8606 32.048C32.7038 32.3484 32.4654 32.5836 32.1454 32.7534C31.8318 32.9298 31.4432 33.0179 30.9794 33.0179ZM31.0382 30.6077C31.3452 30.6077 31.5902 30.5293 31.7731 30.3725C31.9625 30.2158 32.0964 30.0133 32.1748 29.7651C32.2597 29.5169 32.3021 29.2556 32.3021 28.9813C32.3021 28.5175 32.2009 28.1321 31.9984 27.8251C31.7959 27.5181 31.4595 27.3646 30.9892 27.3646C30.6888 27.3646 30.4504 27.4365 30.274 27.5802C30.1042 27.7239 29.9833 27.9166 29.9115 28.1582C29.8462 28.3999 29.8135 28.6677 29.8135 28.9617C29.8135 29.4581 29.9147 29.8565 30.1172 30.157C30.3263 30.4574 30.6332 30.6077 31.0382 30.6077Z" fill="white"/>
<path d="M4.07313 16.2605V5.63344H8.43632C8.99825 5.63344 9.52161 5.7326 10.0064 5.93093C10.4912 6.11824 10.8824 6.40471 11.1798 6.79035C11.4773 7.16496 11.6261 7.64425 11.6261 8.22822C11.6261 8.69098 11.5269 9.08213 11.3286 9.40165C11.1413 9.71016 10.8879 9.9746 10.5683 10.195C10.2488 10.4043 9.90174 10.5916 9.52712 10.7569C10.045 10.9111 10.4967 11.0984 10.8824 11.3188C11.279 11.5282 11.5875 11.8091 11.8079 12.1617C12.0393 12.5143 12.155 12.966 12.155 13.5169C12.155 13.9577 12.0393 14.3488 11.8079 14.6904C11.5875 15.0319 11.2955 15.3239 10.9319 15.5663C10.5683 15.7977 10.1772 15.974 9.7585 16.0952C9.35083 16.2054 8.95969 16.2605 8.58507 16.2605H4.07313ZM6.25473 14.5747H7.80829C8.38123 14.5747 8.87154 14.4645 9.27921 14.2441C9.68688 14.0128 9.89072 13.6271 9.89072 13.0872C9.89072 12.7126 9.78605 12.4206 9.5767 12.2113C9.36736 11.9909 9.10292 11.8367 8.7834 11.7485C8.46387 11.6494 8.13883 11.5998 7.80829 11.5998H6.25473V14.5747ZM6.25473 9.94705H7.65954C7.95703 9.94705 8.238 9.89747 8.50243 9.79831C8.77789 9.69914 9.00376 9.55591 9.18005 9.3686C9.35634 9.17027 9.44449 8.93338 9.44449 8.65793C9.44449 8.34942 9.36185 8.10151 9.19658 7.9142C9.0313 7.71587 8.82196 7.56713 8.56854 7.46796C8.32614 7.3688 8.07272 7.31922 7.80829 7.31922H6.25473V9.94705Z" fill="white"/>
<path d="M13.9895 16.2605V5.63344H17.0635L21.1458 14.1284V5.63344H23.2282V16.2605H20.1376L16.0389 7.76545V16.2605H13.9895Z" fill="white"/>
<path d="M25.2941 16.2605V5.63344H27.4757V16.2605H25.2941Z" fill="white"/>
</svg>
