<svg width="40" height="14" viewBox="0 0 40 14" fill="none" xmlns="http://www.w3.org/2000/svg">
<path fill-rule="evenodd" clip-rule="evenodd" d="M9.97542 13.3097H6.52232L3.93292 3.43096C3.81002 2.97654 3.54906 2.5748 3.1652 2.38546C2.20722 1.90964 1.15159 1.53095 0 1.33996V0.959634H5.56266C6.33039 0.959634 6.90619 1.53095 7.00216 2.19447L8.34568 9.32031L11.7971 0.959634H15.1542L9.97542 13.3097ZM17.0736 13.3097H13.8124L16.4978 0.959634H19.7589L17.0736 13.3097ZM23.9781 4.38097C24.074 3.7158 24.6498 3.33547 25.3216 3.33547C26.3772 3.23998 27.5271 3.43096 28.4868 3.90514L29.0626 1.24612C28.1029 0.865793 27.0473 0.674805 26.0893 0.674805C22.9241 0.674805 20.6209 2.38547 20.6209 4.75965C20.6209 6.56581 22.2524 7.51416 23.4039 8.08548C24.6498 8.65515 25.1297 9.03548 25.0337 9.60516C25.0337 10.4597 24.074 10.84 23.116 10.84C21.9645 10.84 20.8129 10.5552 19.7589 10.0793L19.1831 12.74C20.3347 13.2142 21.5806 13.4052 22.7322 13.4052C26.2812 13.499 28.4868 11.79 28.4868 9.22483C28.4868 5.99449 23.9781 5.80515 23.9781 4.38097V4.38097ZM39.9 13.3097L37.3106 0.959634H34.5293C33.9535 0.959634 33.3777 1.33996 33.1857 1.90964L28.3908 13.3097H31.7479L32.418 11.5052H36.5429L36.9267 13.3097H39.9ZM35.0091 4.28548L35.9671 8.94H33.2817L35.0091 4.28548Z" fill="#172B85"/>
</svg>
